# xmcd
#
# Track frame offsets:
#	151
#	27054
#	53555
#	70039
#	89129
#	106398
#
# Disc length: 1680 seconds
#
# Revision: 0
# Processed by: cddbd v1.5PL3 Copyright (c) Steve Scherf et al.
# Submitted via: dBpowerAMP V4.0
#
DISCID=46068e06
DTITLE=Charlie Daniels - Vintage Live Performances
DYEAR=1900
DGENRE=Country
TTITLE0=Trudy
TTITLE1=Whiskey
TTITLE2=Way Down Yonder
TTITLE3=Honky Tonk Avenue
TTITLE4=Drinkin' My Baby Goodbye
TTITLE5=The South's Gonna Do It Again
EXTD=
EXTT0=
EXTT1=
EXTT2=
EXTT3=
EXTT4=
EXTT5=
PLAYORDER=
